<svg width="25" height="22" viewBox="0 0 25 22" fill="none" xmlns="http://www.w3.org/2000/svg">
<path d="M7.29165 1.17188V5.07812C7.29165 5.72534 6.76699 6.25 6.11978 6.25H1.17188C0.524658 6.25 0 5.72534 0 5.07812V1.17188C0 0.524658 0.524658 0 1.17188 0H6.11978C6.76699 0 7.29165 0.524658 7.29165 1.17188ZM16.1458 12.8906V8.98438C16.1458 8.33716 15.6212 7.8125 14.974 7.8125H10.026C9.37881 7.8125 8.85415 8.33716 8.85415 8.98438V12.8906C8.85415 13.5378 9.37881 14.0625 10.026 14.0625H14.9739C15.6212 14.0625 16.1458 13.5378 16.1458 12.8906ZM17.7083 1.17188V5.07812C17.7083 5.72534 18.233 6.25 18.8802 6.25H23.8281C24.4753 6.25 25 5.72534 25 5.07812V1.17188C25 0.524658 24.4753 0 23.8281 0H18.8802C18.233 0 17.7083 0.524658 17.7083 1.17188ZM16.1458 5.07812V1.17188C16.1458 0.524658 15.6212 0 14.974 0H10.026C9.37881 0 8.85415 0.524658 8.85415 1.17188V5.07812C8.85415 5.72534 9.37881 6.25 10.026 6.25H14.9739C15.6212 6.25 16.1458 5.72534 16.1458 5.07812ZM6.11978 7.8125H1.17188C0.524658 7.8125 0 8.33716 0 8.98438V12.8906C0 13.5378 0.524658 14.0625 1.17188 14.0625H6.11978C6.76699 14.0625 7.29165 13.5378 7.29165 12.8906V8.98438C7.29165 8.33716 6.76699 7.8125 6.11978 7.8125ZM0 16.7969V20.7031C0 21.3503 0.524658 21.875 1.17188 21.875H6.11978C6.76699 21.875 7.29165 21.3503 7.29165 20.7031V16.7969C7.29165 16.1497 6.76699 15.625 6.11978 15.625H1.17188C0.524658 15.625 0 16.1497 0 16.7969ZM18.8802 14.0625H23.8281C24.4753 14.0625 25 13.5378 25 12.8906V8.98438C25 8.33716 24.4753 7.8125 23.8281 7.8125H18.8802C18.233 7.8125 17.7083 8.33716 17.7083 8.98438V12.8906C17.7083 13.5378 18.233 14.0625 18.8802 14.0625ZM18.8802 21.875H23.8281C24.4753 21.875 25 21.3503 25 20.7031V16.7969C25 16.1497 24.4753 15.625 23.8281 15.625H18.8802C18.233 15.625 17.7083 16.1497 17.7083 16.7969V20.7031C17.7083 21.3503 18.233 21.875 18.8802 21.875ZM8.85415 16.7969V20.7031C8.85415 21.3503 9.37881 21.875 10.026 21.875H14.9739C15.6211 21.875 16.1458 21.3503 16.1458 20.7031V16.7969C16.1458 16.1497 15.6211 15.625 14.9739 15.625H10.026C9.37881 15.625 8.85415 16.1497 8.85415 16.7969Z" fill="#FF5C28"/>
</svg>
