<svg width="22" height="22" viewBox="0 0 22 22" fill="none" xmlns="http://www.w3.org/2000/svg">
<path d="M21.875 17.1875V20.3125C21.875 21.1754 21.1754 21.875 20.3125 21.875H1.56251C0.699571 21.875 1.06189e-05 21.1754 1.06189e-05 20.3125V17.1875C1.06189e-05 16.3245 0.699571 15.625 1.56251 15.625H20.3125C21.1754 15.625 21.875 16.3245 21.875 17.1875ZM2.34635 14.0625H19.5283C21.562 14.0625 22.6328 11.637 21.256 10.135L12.6652 0.75965C11.7368 -0.253192 10.1383 -0.253241 9.20978 0.75965L0.618663 10.135C-0.755605 11.6342 0.3088 14.0625 2.34635 14.0625Z" fill="#FF5C28"/>
</svg>
